<svg xmlns="http://www.w3.org/2000/svg" width="600" height="600" viewBox="0 0 600 600">
  <defs>
    <g id="d_heart"><path d="M10 17s-7-4.5-7-10a4 4 0 017-2.6A4 4 0 0117 7c0 5.5-7 10-7 10z" fill="#d1c7b7" opacity=".55"/></g>
    <g id="d_star"><path d="M10 1l2.6 6 6.4.6-4.8 4.4 1.4 6.4L10 15.5 4.4 18.4l1.4-6.4L1 7.6l6.4-.6L10 1z" fill="#d1c7b7" opacity=".5"/></g>
    <g id="d_gift"><path d="M3 8h14v10H3zM2 5h16v3H2zM10 5v13M7.5 5C6 5 5 4 5 2.5S6 1 7.5 1 10 3 10 5M12.5 5C14 5 15 4 15 2.5S14 1 12.5 1 10 3 10 5" stroke="#d1c7b7" stroke-width="1.3" fill="none" opacity=".55"/></g>
    <g id="d_plant"><path d="M10 18V8M10 8c-3-4-7-3-7-3s1 6 7 3zM10 8c3-4 7-3 7-3s-1 6-7 3z" stroke="#d1c7b7" stroke-width="1.3" fill="none" opacity=".5"/></g>
    <g id="d_smile"><circle cx="10" cy="10" r="8" stroke="#d1c7b7" stroke-width="1.3" fill="none" opacity=".55"/><circle cx="7.5" cy="8.5" r="1" fill="#d1c7b7" opacity=".55"/><circle cx="12.5" cy="8.5" r="1" fill="#d1c7b7" opacity=".55"/><path d="M7 12c.8 1.2 1.8 2 3 2s2.2-.8 3-2" stroke="#d1c7b7" stroke-width="1.3" fill="none" opacity=".55"/></g>
    <g id="d_balloon"><path d="M10 1c-3 0-5 2.2-5 5 0 3.5 5 7 5 7s5-3.5 5-7c0-2.8-2-5-5-5zM10 13v6M9 19h2" stroke="#d1c7b7" stroke-width="1.3" fill="none" opacity=".5"/></g>
    <g id="d_house"><path d="M2 10l8-7 8 7v8H2v-8zM8 18v-5h4v5" stroke="#d1c7b7" stroke-width="1.3" fill="none" opacity=".55"/></g>
    <g id="d_sun"><circle cx="10" cy="10" r="3.5" stroke="#d1c7b7" stroke-width="1.3" fill="none" opacity=".55"/><path d="M10 2v2M10 16v2M2 10h2M16 10h2M4.5 4.5l1.5 1.5M14 14l1.5 1.5M4.5 15.5l1.5-1.5M14 6l1.5-1.5" stroke="#d1c7b7" stroke-width="1.3" opacity=".55"/></g>
    <g id="d_cake"><path d="M3 18V11h14v7zM3 11c0-2 3-3 7-3s7 1 7 3M10 8V5M10 5c-1 0-1.5-.7-1.5-1.5S10 1 10 1s1.5 1.7 1.5 2.5S11 5 10 5z" stroke="#d1c7b7" stroke-width="1.3" fill="none" opacity=".5"/></g>
    <g id="d_moon"><path d="M14 14a7 7 0 11-7-11 5 5 0 007 11z" stroke="#d1c7b7" stroke-width="1.3" fill="none" opacity=".55"/></g>
    <g id="d_cup"><path d="M4 6h11v6a4 4 0 01-4 4H8a4 4 0 01-4-4V6zM15 8h2a2 2 0 010 4h-2M6 2v2M9 1v3M12 2v2" stroke="#d1c7b7" stroke-width="1.3" fill="none" opacity=".55"/></g>
    <g id="d_book"><path d="M3 3h6c1.5 0 3 .8 3 2v13c0-1.2-1.5-2-3-2H3V3zM17 3h-6c-1.5 0-3 .8-3 2v13c0-1.2 1.5-2 3-2h6V3z" stroke="#d1c7b7" stroke-width="1.3" fill="none" opacity=".5"/></g>
    <g id="d_camera"><path d="M2 6h4l2-2h4l2 2h4v11H2V6zM10 14a4 4 0 100-8 4 4 0 000 8z" stroke="#d1c7b7" stroke-width="1.3" fill="none" opacity=".55"/></g>
    <g id="d_music"><path d="M7 16V4l10-2v12M7 16a2 2 0 11-4 0 2 2 0 014 0zM17 14a2 2 0 11-4 0 2 2 0 014 0z" stroke="#d1c7b7" stroke-width="1.3" fill="none" opacity=".55"/></g>
    <g id="d_globe"><circle cx="10" cy="10" r="8" stroke="#d1c7b7" stroke-width="1.3" fill="none" opacity=".5"/><path d="M2 10h16M10 2c3 3 3 13 0 16M10 2c-3 3-3 13 0 16" stroke="#d1c7b7" stroke-width="1.3" fill="none" opacity=".5"/></g>
  </defs>
  <rect width="600" height="600" fill="#efeae2"/>
  <use href="#d_heart" x="20" y="30"/>
  <use href="#d_star" x="120" y="60"/>
  <use href="#d_gift" x="220" y="20"/>
  <use href="#d_smile" x="320" y="55"/>
  <use href="#d_plant" x="420" y="30"/>
  <use href="#d_sun" x="520" y="50"/>
  <use href="#d_house" x="60" y="120"/>
  <use href="#d_balloon" x="170" y="140"/>
  <use href="#d_cake" x="270" y="120"/>
  <use href="#d_moon" x="380" y="150"/>
  <use href="#d_cup" x="470" y="120"/>
  <use href="#d_book" x="555" y="160"/>
  <use href="#d_camera" x="15" y="220"/>
  <use href="#d_music" x="115" y="240"/>
  <use href="#d_globe" x="215" y="220"/>
  <use href="#d_heart" x="320" y="245"/>
  <use href="#d_star" x="415" y="225"/>
  <use href="#d_gift" x="510" y="250"/>
  <use href="#d_smile" x="50" y="320"/>
  <use href="#d_plant" x="160" y="340"/>
  <use href="#d_sun" x="260" y="320"/>
  <use href="#d_house" x="360" y="340"/>
  <use href="#d_balloon" x="465" y="320"/>
  <use href="#d_cake" x="555" y="345"/>
  <use href="#d_moon" x="25" y="420"/>
  <use href="#d_cup" x="125" y="445"/>
  <use href="#d_book" x="225" y="420"/>
  <use href="#d_camera" x="320" y="445"/>
  <use href="#d_music" x="420" y="420"/>
  <use href="#d_globe" x="515" y="445"/>
  <use href="#d_heart" x="75" y="525"/>
  <use href="#d_gift" x="175" y="540"/>
  <use href="#d_star" x="280" y="520"/>
  <use href="#d_plant" x="380" y="545"/>
  <use href="#d_smile" x="475" y="520"/>
  <use href="#d_sun" x="555" y="540"/>
</svg>
